<svg width="512" height="512" viewBox="0 0 512 512" fill="none" xmlns="http://www.w3.org/2000/svg">
<rect width="512" height="512" rx="64" fill="#4F46E5"/>
<path d="M161.405 374.2C146.472 374.2 133.352 371.427 122.045 365.88C110.952 360.12 102.312 352.12 96.125 341.88C90.1517 331.427 87.165 319.16 87.165 305.08V203.32C87.165 189.027 90.1517 176.76 96.125 166.52C102.312 156.28 110.952 148.387 122.045 142.84C133.352 137.08 146.472 134.2 161.405 134.2C176.552 134.2 189.565 137.08 200.445 142.84C211.538 148.387 220.178 156.28 226.365 166.52C232.552 176.76 235.645 189.027 235.645 203.32H195.325C195.325 192.227 192.338 183.8 186.365 178.04C180.605 172.28 172.285 169.4 161.405 169.4C150.525 169.4 142.098 172.28 136.125 178.04C130.152 183.8 127.165 192.12 127.165 203V305.08C127.165 315.96 130.152 324.387 136.125 330.36C142.098 336.12 150.525 339 161.405 339C172.285 339 180.605 336.12 186.365 330.36C192.338 324.387 195.325 315.96 195.325 305.08H235.645C235.645 318.947 232.552 331.107 226.365 341.56C220.178 352.013 211.538 360.12 200.445 365.88C189.565 371.427 176.552 374.2 161.405 374.2ZM280.32 371V137.4H320.32V231.8H348.16L392 137.4H435.52L383.36 249.4L438.08 371H393.6L347.52 268.28H320.32V371H280.32Z" fill="white"/>
</svg>
